<svg width="500" height="500" xmlns="https://www.w3.org/2000/svg" fill="currentColor" stroke-width="0">
 <g>
  <title>Layer 1</title>
  <g stroke="null">
   <path stroke="null" d="m112.28575,57.573l371.42855,0l14.28571,11.00257l0,198.04619l-14.28571,11.00257l-71.42857,0l0,55.01283l-24.4,7.78982l-81.51428,-62.80265l-194.0857,0l-14.28571,-11.00257l0,-198.04619l14.28571,-11.00257zm14.28571,198.04619l185.71428,0l10.11429,3.21275l61.31428,47.24502l0,-39.4552l14.28571,-11.00257l71.42857,0l0,-176.04106l-342.85713,0l0,176.04106z"/>
  </g>
  <ellipse fill="#ffffff" ry="54.5" rx="61" id="svg_6" cy="263.5" cx="123" stroke="null"/>
  <path stroke="null" d="m175.82184,327.34941a122.71879,120.9047 0 0 1 70.1367,103.52905a15.32708,15.1005 0 1 1 -30.61328,1.40938a91.96246,90.60302 0 0 0 -183.72056,0a15.32708,15.1005 0 0 1 -30.61328,-1.40938a122.69836,120.88456 0 0 1 70.11627,-103.52905a81.72397,80.51588 0 1 1 104.69415,0zm-1.2466,-61.8718a51.09025,50.33501 0 1 0 -102.18051,0a51.09025,50.33501 0 0 0 102.18051,0z" id="svg_1"/>
 </g>

</svg>