<svg xmlns="https://www.w3.org/2000/svg" version="1.1" width="500px" height="500px" style="shape-rendering:geometricPrecision; text-rendering:geometricPrecision; image-rendering:optimizeQuality; fill-rule:evenodd; clip-rule:evenodd" xmlns:xlink="https://www.w3.org/1999/xlink">
<g><path style="opacity:0.952" fill="#000000" d="M 207.5,8.5 C 216.166,9.26658 224.833,10.0999 233.5,11C 236.973,11.3194 239.806,12.8194 242,15.5C 243.265,51.478 243.932,87.478 244,123.5C 245.167,125.333 246.333,127.167 247.5,129C 256.055,129.293 264.555,129.793 273,130.5C 278.774,128.641 281.941,124.641 282.5,118.5C 281.044,110.128 281.211,101.795 283,93.5C 290.897,78.8304 298.23,63.8304 305,48.5C 309.872,38.4359 313.872,28.1026 317,17.5C 319.984,12.0047 324.651,9.33807 331,9.5C 342.003,9.83612 347.669,15.5028 348,26.5C 357.491,48.8093 367.491,70.8093 378,92.5C 379.208,103.118 379.875,113.785 380,124.5C 381.5,126 383,127.5 384.5,129C 400.848,130.062 417.182,130.729 433.5,131C 437.704,132.547 441.371,134.88 444.5,138C 448.608,139.027 452.608,140.36 456.5,142C 461.691,147.557 466.524,153.39 471,159.5C 471.973,161.392 472.64,163.392 473,165.5C 473.3,230.669 473.8,295.835 474.5,361C 474.459,373.181 474.125,385.348 473.5,397.5C 474.012,401.894 474.846,406.228 476,410.5C 490.132,420.254 494.799,433.587 490,450.5C 488.77,453.732 486.77,456.399 484,458.5C 483.023,468.48 477.523,474.314 467.5,476C 464.879,479.95 461.212,482.284 456.5,483C 315.729,484.32 175.062,484.32 34.5,483C 9.83342,466.534 3.00009,444.367 14,416.5C 16.7662,413.907 19.9328,411.907 23.5,410.5C 24.4274,408.887 25.2607,407.221 26,405.5C 26.1811,334.323 26.6811,263.156 27.5,192C 26.4354,181.828 26.6021,171.661 28,161.5C 31.3269,155.693 35.4936,150.526 40.5,146C 46.5483,141.272 52.5483,136.605 58.5,132C 66.9222,130.638 75.4222,129.804 84,129.5C 93.4906,130.428 102.991,130.595 112.5,130C 116.919,129.068 119.419,126.235 120,121.5C 120.333,86.8333 120.667,52.1667 121,17.5C 123.169,13.9897 126.336,11.823 130.5,11C 133.5,10.6667 136.5,10.3333 139.5,10C 162.337,9.83203 185.004,9.33203 207.5,8.5 Z M 146.5,30.5 C 169.169,30.3334 191.836,30.5 214.5,31C 216.888,31.3034 219.055,32.1367 221,33.5C 222.319,98.789 222.986,164.122 223,229.5C 228.46,237.219 234.46,237.886 241,231.5C 241.862,229.913 242.529,228.246 243,226.5C 243.333,204.5 243.667,182.5 244,160.5C 245.186,157.249 247.352,155.082 250.5,154C 259.167,153.333 267.833,153.333 276.5,154C 278.123,156.08 279.623,158.246 281,160.5C 281.252,166.53 281.752,172.53 282.5,178.5C 282.456,233.944 282.123,289.277 281.5,344.5C 282.037,348.829 282.537,353.162 283,357.5C 287.033,364.853 291.033,372.187 295,379.5C 298.642,384.146 303.142,387.646 308.5,390C 315.657,391.041 322.657,392.541 329.5,394.5C 338.709,392.032 348.042,389.865 357.5,388C 361,385.167 364.5,382.333 368,379.5C 370.892,372.279 374.226,365.279 378,358.5C 378.99,290.807 379.99,223.14 381,155.5C 382.8,153.683 384.966,152.516 387.5,152C 398.167,151.333 408.833,151.333 419.5,152C 425.49,154.327 431.49,156.661 437.5,159C 440.249,160.123 442.749,161.623 445,163.5C 448.794,168.249 451.961,173.416 454.5,179C 453.668,253.763 453.168,328.597 453,403.5C 451.961,405.746 450.794,407.913 449.5,410C 383.057,411.162 316.557,411.662 250,411.5C 184.5,411.333 119,411.167 53.5,411C 52.376,410.751 51.376,410.251 50.5,409.5C 48.7598,404.324 47.7598,398.991 47.5,393.5C 48.7744,321.957 48.7744,250.457 47.5,179C 47.9343,175.322 48.9343,171.822 50.5,168.5C 53.9846,165.516 57.318,162.349 60.5,159C 66.0526,156.39 71.7192,154.057 77.5,152C 89.8333,151.333 102.167,151.333 114.5,152C 117.953,153.728 119.786,156.562 120,160.5C 120.333,233.833 120.667,307.167 121,380.5C 121.36,382.608 122.027,384.608 123,386.5C 129.709,391.435 137.209,394.602 145.5,396C 165.5,396.667 185.5,396.667 205.5,396C 216.728,396.788 227.395,394.788 237.5,390C 239.617,388.269 241.117,386.102 242,383.5C 243.613,365.219 243.947,346.886 243,328.5C 241.635,317.727 235.802,314.56 225.5,319C 224.299,319.903 223.465,321.069 223,322.5C 222.667,336.167 222.333,349.833 222,363.5C 221.5,364.667 220.667,365.5 219.5,366C 195.23,367.637 170.896,367.971 146.5,367C 142.896,365.666 141.729,363.166 143,359.5C 144.5,358.667 145.667,357.5 146.5,356C 155.996,354.77 161.996,349.603 164.5,340.5C 164.152,338.303 163.152,336.47 161.5,335C 155.961,332.749 150.461,330.583 145,328.5C 141.465,322.919 141.965,317.753 146.5,313C 156.833,312.667 167.167,312.333 177.5,312C 182.706,311.262 185.039,308.262 184.5,303C 184.902,298.8 183.235,295.8 179.5,294C 168.542,292.816 157.542,292.149 146.5,292C 145.584,291.626 144.75,291.126 144,290.5C 142.869,285.743 142.035,280.91 141.5,276C 141.99,274.018 142.99,272.351 144.5,271C 150.867,270.119 157.2,269.119 163.5,268C 169.075,261.974 168.742,256.307 162.5,251C 157.167,250 151.833,249 146.5,248C 145.333,246.833 144.167,245.667 143,244.5C 142.333,240.5 142.333,236.5 143,232.5C 144.738,229.768 147.238,228.268 150.5,228C 160.559,227.896 170.559,227.229 180.5,226C 187.319,218.927 186.652,212.593 178.5,207C 167.491,206.254 156.491,205.587 145.5,205C 141.162,199.67 141.829,195.003 147.5,191C 156.264,189.71 162.598,185.21 166.5,177.5C 163.402,174.176 160.402,170.676 157.5,167C 153.971,165.534 150.305,164.534 146.5,164C 141.235,159.35 141.568,155.017 147.5,151C 158.572,150.932 169.572,150.265 180.5,149C 188.603,138.969 186.603,131.635 174.5,127C 165.226,125.78 155.893,125.113 146.5,125C 141.634,120.281 141.301,115.281 145.5,110C 151.301,109.172 156.967,107.839 162.5,106C 167.833,100.333 167.833,94.6667 162.5,89C 157.388,86.9869 152.055,85.9869 146.5,86C 145.069,85.5348 143.903,84.7014 143,83.5C 142.333,79.1667 142.333,74.8333 143,70.5C 144.046,68.9095 145.213,67.4095 146.5,66C 157.209,65.8448 167.875,65.1781 178.5,64C 181.978,62.0584 183.978,59.0584 184.5,55C 183.744,52.1439 182.911,49.3106 182,46.5C 180.933,45.8095 179.766,45.3095 178.5,45C 167.458,44.8505 156.458,44.1839 145.5,43C 141.648,38.2907 141.982,34.1241 146.5,30.5 Z M 330.5,55.5 C 334.847,59.6864 338.68,64.353 342,69.5C 342.591,73.8821 344.091,77.8821 346.5,81.5C 345.687,82.8139 344.687,83.9805 343.5,85C 336.247,86.557 328.914,86.8903 321.5,86C 317.539,85.3922 316.039,83.2256 317,79.5C 319.759,74.1506 321.759,68.4839 323,62.5C 325.998,60.6671 328.498,58.3338 330.5,55.5 Z M 309.5,116.5 C 314.252,117.967 316.586,121.3 316.5,126.5C 315.283,180.033 315.283,233.533 316.5,287C 316.039,295.836 315.539,304.669 315,313.5C 311.667,317.5 308.333,317.5 305,313.5C 304.667,311.167 304.333,308.833 304,306.5C 303.333,244.833 303.333,183.167 304,121.5C 305.107,118.887 306.94,117.22 309.5,116.5 Z M 350.5,117.5 C 354.758,117.295 357.758,119.128 359.5,123C 359.197,182.346 359.03,241.846 359,301.5C 358.828,305.871 358.328,310.204 357.5,314.5C 353.725,317.2 350.225,316.867 347,313.5C 346.333,249.5 346.333,185.5 347,121.5C 347.69,119.65 348.856,118.316 350.5,117.5 Z M 308.5,338.5 C 323.504,338.333 338.504,338.5 353.5,339C 356.477,340.145 358.144,342.312 358.5,345.5C 355.039,352.125 351.372,358.625 347.5,365C 345.608,365.973 343.608,366.64 341.5,367C 333.833,367.667 326.167,367.667 318.5,367C 316.899,366.727 315.399,366.227 314,365.5C 312.276,359.991 309.609,354.991 306,350.5C 305.399,348.863 304.899,347.197 304.5,345.5C 305.576,343.014 306.909,340.681 308.5,338.5 Z M 38.5,439.5 C 96.501,439.333 154.501,439.5 212.5,440C 215.822,440.059 218.656,441.226 221,443.5C 221.96,447.298 223.294,450.965 225,454.5C 227.391,455.429 229.225,456.929 230.5,459C 229.556,460.477 228.223,461.477 226.5,462C 164.833,462.667 103.167,462.667 41.5,462C 38.5634,456.794 35.8968,451.46 33.5,446C 33.8924,442.783 35.5591,440.616 38.5,439.5 Z M 282.5,439.5 C 339.501,439.333 396.501,439.5 453.5,440C 456.167,440.333 458.833,440.667 461.5,441C 463.897,443.581 464.063,446.414 462,449.5C 459.667,452.5 457.333,455.5 455,458.5C 453.065,460.102 450.899,461.269 448.5,462C 390.5,462.667 332.5,462.667 274.5,462C 273.128,461.598 271.795,461.098 270.5,460.5C 269.417,459.635 269.251,458.635 270,457.5C 275.522,454.25 277.522,449.584 276,443.5C 277.792,441.372 279.958,440.039 282.5,439.5 Z"/></g>
<g><path style="opacity:0.883" fill="#000000" d="M 231.5,266.5 C 241.921,266.745 245.421,271.745 242,281.5C 236.329,287.749 230.329,288.082 224,282.5C 220.024,273.762 222.524,268.429 231.5,266.5 Z"/></g>
</svg>
